# xmcd CD database file
#
# Track frame offsets:
#	150
#	14202
#	32084
#	45043
#	55147
#
# Disc length: 853 seconds
#
# Revision: 0
# Processed by: cddbd v1.5.2PL0 Copyright (c) Steve Scherf et al.
# Submitted via: CDex 1.51
#
DISCID=36035305
DTITLE=Dirk Fingerhut Trio - The days of wine and roses
DYEAR=1995
DGENRE=Jazz
TTITLE0=The days of wine and roses
TTITLE1=Feelings
TTITLE2=My little suede shoes
TTITLE3=Sunny
TTITLE4=Cute
EXTD=YEAR: 1995
EXTT0=
EXTT1=
EXTT2=
EXTT3=
EXTT4=
PLAYORDER=
